<svg width="11" height="11" viewBox="0 0 11 11" fill="none" xmlns="http://www.w3.org/2000/svg">
<path d="M10.6667 5.85596C10.6667 8.61739 8.42818 10.856 5.66675 10.856C2.90532 10.856 0.666748 8.61739 0.666748 5.85596C0.666748 3.09453 2.90532 0.855957 5.66675 0.855957C8.42818 0.855957 10.6667 3.09453 10.6667 5.85596ZM5.0884 8.50342L8.79808 4.79374C8.92405 4.66777 8.92405 4.46352 8.79808 4.33755L8.34189 3.88136C8.21592 3.75537 8.01167 3.75537 7.88568 3.88136L4.8603 6.90672L3.44782 5.49424C3.32185 5.36828 3.11759 5.36828 2.99161 5.49424L2.53542 5.95043C2.40945 6.0764 2.40945 6.28065 2.53542 6.40662L4.63219 8.5034C4.75818 8.62938 4.96241 8.62938 5.0884 8.50342Z" fill="#2DA137"/>
</svg>
